<svg xmlns="http://www.w3.org/2000/svg" width="39.561" height="11.758" viewBox="0 0 39.561 11.758" fill="none">
  <path d="M 12.99 3.387 C 13.592 3.387 14.136 3.481 14.62 3.668 C 15.114 3.856 15.511 4.11 15.81 4.433 C 16.107 4.753 16.348 5.122 16.535 5.541 C 16.722 5.961 16.822 6.404 16.833 6.868 C 16.844 7.318 16.805 7.774 16.718 8.236 L 16.711 8.272 L 10.842 8.272 C 10.937 8.898 11.252 9.371 11.79 9.693 C 12.347 10.016 13.013 10.178 13.789 10.178 C 14.673 10.178 15.492 9.994 16.246 9.626 L 16.311 9.594 L 16.311 11.201 L 16.285 11.214 C 15.528 11.577 14.586 11.758 13.462 11.758 C 12.182 11.758 11.112 11.395 10.255 10.667 C 9.406 9.937 8.984 8.903 8.984 7.572 C 8.984 6.891 9.104 6.274 9.346 5.722 C 9.587 5.16 9.907 4.717 10.305 4.395 C 10.7 4.065 11.128 3.817 11.589 3.651 C 12.05 3.475 12.517 3.387 12.99 3.387 Z M 29.544 3.387 C 30.146 3.387 30.689 3.481 31.173 3.668 C 31.667 3.856 32.064 4.11 32.364 4.433 C 32.661 4.753 32.902 5.122 33.089 5.541 C 33.276 5.961 33.375 6.404 33.386 6.868 C 33.397 7.318 33.359 7.774 33.272 8.236 L 33.265 8.272 L 27.396 8.272 C 27.491 8.898 27.805 9.371 28.343 9.693 C 28.9 10.016 29.566 10.178 30.342 10.178 C 31.227 10.178 32.046 9.994 32.8 9.626 L 32.865 9.594 L 32.865 11.201 L 32.839 11.214 C 32.082 11.577 31.14 11.758 30.016 11.758 C 28.816 11.758 27.8 11.439 26.972 10.799 L 26.809 10.667 C 25.96 9.937 25.538 8.903 25.538 7.572 C 25.538 6.891 25.658 6.273 25.9 5.721 C 26.141 5.16 26.46 4.718 26.858 4.396 L 27.008 4.276 C 27.31 4.043 27.632 3.857 27.972 3.718 L 28.143 3.651 C 28.604 3.475 29.071 3.387 29.544 3.387 Z M 2.714 0 L 2.714 9.72 L 8.712 9.72 L 8.712 11.545 L 0.765 11.545 L 0.765 1.727 C 0.765 1.627 0.684 1.545 0.584 1.545 L 0 1.545 L 0.071 1.469 L 1.429 0.014 L 1.443 0 L 2.714 0 Z M 18.828 3.6 L 18.839 3.628 L 21.177 9.479 L 23.498 3.628 L 23.509 3.6 L 25.516 3.6 L 25.488 3.663 L 22.131 11.518 L 22.12 11.545 L 20.218 11.545 L 20.206 11.518 L 16.865 3.663 L 16.838 3.6 L 18.828 3.6 Z M 29.625 4.934 C 29.015 4.934 28.493 5.111 28.056 5.464 L 28.056 5.464 C 27.643 5.806 27.417 6.274 27.375 6.872 L 31.622 6.872 C 31.672 6.453 31.54 6.03 31.219 5.604 L 31.218 5.603 C 30.904 5.161 30.377 4.934 29.625 4.934 Z M 13.071 4.934 C 12.462 4.934 11.939 5.111 11.502 5.464 C 11.09 5.806 10.863 6.274 10.822 6.872 L 15.069 6.872 C 15.118 6.453 14.986 6.031 14.665 5.604 L 14.664 5.603 C 14.35 5.161 13.823 4.934 13.071 4.934 Z M 39.561 5.252 L 39.51 5.245 C 38.822 5.148 38.201 5.239 37.645 5.518 C 37.092 5.796 36.699 6.206 36.465 6.748 L 36.465 11.545 L 34.63 11.545 L 34.63 3.6 L 36.269 3.6 L 36.269 4.302 C 36.269 4.368 36.317 4.422 36.387 4.446 C 36.457 4.47 36.536 4.459 36.586 4.409 C 36.851 4.145 37.175 3.926 37.558 3.751 C 38.163 3.475 38.817 3.37 39.52 3.436 L 39.561 3.44 L 39.561 5.252 Z" fill="currentColor" fill-rule="nonzero"/>
  <path d="M 14.62 3.668 L 14.584 3.762 L 14.584 3.762 L 14.62 3.668 Z M 15.81 4.433 L 15.737 4.501 L 15.737 4.501 L 15.81 4.433 Z M 16.535 5.541 L 16.626 5.5 L 16.626 5.5 L 16.535 5.541 Z M 16.833 6.868 L 16.733 6.87 L 16.733 6.87 L 16.833 6.868 Z M 16.718 8.236 L 16.816 8.254 L 16.816 8.254 L 16.718 8.236 Z M 16.711 8.272 L 16.711 8.372 L 16.793 8.372 L 16.809 8.291 L 16.711 8.272 Z M 10.842 8.272 L 10.842 8.172 L 10.726 8.172 L 10.743 8.287 L 10.842 8.272 Z M 11.79 9.693 L 11.738 9.779 L 11.74 9.78 L 11.79 9.693 Z M 13.789 10.178 L 13.789 10.278 L 13.789 10.278 L 13.789 10.178 Z M 16.246 9.626 L 16.29 9.716 L 16.29 9.716 L 16.246 9.626 Z M 16.311 9.594 L 16.411 9.594 L 16.411 9.434 L 16.267 9.505 L 16.311 9.594 Z M 16.311 11.201 L 16.354 11.291 L 16.411 11.264 L 16.411 11.201 L 16.311 11.201 Z M 16.285 11.214 L 16.329 11.304 L 16.329 11.304 L 16.285 11.214 Z M 13.462 11.758 L 13.462 11.858 L 13.462 11.858 L 13.462 11.758 Z M 10.255 10.667 L 10.19 10.743 L 10.19 10.743 L 10.255 10.667 Z M 9.346 5.722 L 9.438 5.762 L 9.438 5.761 L 9.346 5.722 Z M 10.305 4.395 L 10.368 4.473 L 10.369 4.472 L 10.305 4.395 Z M 11.589 3.651 L 11.623 3.746 L 11.625 3.745 L 11.589 3.651 Z M 31.173 3.668 L 31.137 3.762 L 31.138 3.762 L 31.173 3.668 Z M 32.364 4.433 L 32.437 4.365 L 32.437 4.365 L 32.364 4.433 Z M 33.089 5.541 L 32.998 5.582 L 32.998 5.582 L 33.089 5.541 Z M 33.386 6.868 L 33.486 6.866 L 33.486 6.865 L 33.386 6.868 Z M 33.272 8.236 L 33.37 8.255 L 33.37 8.254 L 33.272 8.236 Z M 33.265 8.272 L 33.265 8.372 L 33.347 8.372 L 33.363 8.292 L 33.265 8.272 Z M 27.396 8.272 L 27.396 8.172 L 27.28 8.172 L 27.297 8.287 L 27.396 8.272 Z M 28.343 9.693 L 28.292 9.779 L 28.293 9.78 L 28.343 9.693 Z M 32.8 9.626 L 32.844 9.716 L 32.844 9.716 L 32.8 9.626 Z M 32.865 9.594 L 32.965 9.594 L 32.965 9.433 L 32.821 9.505 L 32.865 9.594 Z M 32.865 11.201 L 32.909 11.291 L 32.965 11.264 L 32.965 11.201 L 32.865 11.201 Z M 32.839 11.214 L 32.883 11.304 L 32.883 11.303 L 32.839 11.214 Z M 26.972 10.799 L 26.909 10.877 L 26.911 10.879 L 26.972 10.799 Z M 26.809 10.667 L 26.743 10.743 L 26.746 10.745 L 26.809 10.667 Z M 25.9 5.721 L 25.992 5.762 L 25.992 5.761 L 25.9 5.721 Z M 26.858 4.396 L 26.795 4.318 L 26.795 4.318 L 26.858 4.396 Z M 27.008 4.276 L 26.947 4.196 L 26.945 4.198 L 27.008 4.276 Z M 27.972 3.718 L 27.936 3.624 L 27.934 3.625 L 27.972 3.718 Z M 28.143 3.651 L 28.108 3.558 L 28.107 3.558 L 28.143 3.651 Z M 2.714 0 L 2.814 0 L 2.814 -0.1 L 2.714 -0.1 L 2.714 0 Z M 2.714 9.72 L 2.614 9.72 L 2.614 9.82 L 2.714 9.82 L 2.714 9.72 Z M 8.712 9.72 L 8.812 9.72 L 8.812 9.62 L 8.712 9.62 L 8.712 9.72 Z M 8.712 11.545 L 8.712 11.645 L 8.812 11.645 L 8.812 11.545 L 8.712 11.545 Z M 0.765 11.545 L 0.665 11.545 L 0.665 11.645 L 0.765 11.645 L 0.765 11.545 Z M 0 1.545 L -0.073 1.477 L -0.23 1.645 L 0 1.645 L 0 1.545 Z M 0.071 1.469 L -0.002 1.401 L -0.002 1.401 L 0.071 1.469 Z M 1.429 0.014 L 1.357 -0.055 L 1.356 -0.054 L 1.429 0.014 Z M 1.443 0 L 1.443 -0.1 L 1.401 -0.1 L 1.371 -0.069 L 1.443 0 Z M 18.828 3.6 L 18.92 3.562 L 18.895 3.5 L 18.828 3.5 L 18.828 3.6 Z M 18.839 3.628 L 18.932 3.591 L 18.932 3.59 L 18.839 3.628 Z M 21.177 9.479 L 21.084 9.516 L 21.177 9.749 L 21.269 9.516 L 21.177 9.479 Z M 23.498 3.628 L 23.405 3.591 L 23.405 3.591 L 23.498 3.628 Z M 23.509 3.6 L 23.509 3.5 L 23.442 3.5 L 23.417 3.563 L 23.509 3.6 Z M 25.516 3.6 L 25.607 3.64 L 25.668 3.5 L 25.516 3.5 L 25.516 3.6 Z M 25.488 3.663 L 25.397 3.623 L 25.396 3.624 L 25.488 3.663 Z M 22.131 11.518 L 22.039 11.478 L 22.038 11.48 L 22.131 11.518 Z M 22.12 11.545 L 22.12 11.645 L 22.187 11.645 L 22.212 11.583 L 22.12 11.545 Z M 20.218 11.545 L 20.127 11.586 L 20.153 11.645 L 20.218 11.645 L 20.218 11.545 Z M 20.206 11.518 L 20.114 11.557 L 20.114 11.558 L 20.206 11.518 Z M 16.865 3.663 L 16.957 3.624 L 16.957 3.624 L 16.865 3.663 Z M 16.838 3.6 L 16.838 3.5 L 16.686 3.5 L 16.746 3.639 L 16.838 3.6 Z M 28.056 5.464 L 27.985 5.535 L 28.049 5.599 L 28.119 5.542 L 28.056 5.464 Z M 28.056 5.464 L 28.127 5.393 L 28.062 5.329 L 27.992 5.387 L 28.056 5.464 Z M 27.375 6.872 L 27.276 6.865 L 27.268 6.972 L 27.375 6.972 L 27.375 6.872 Z M 31.622 6.872 L 31.622 6.972 L 31.711 6.972 L 31.721 6.884 L 31.622 6.872 Z M 31.219 5.604 L 31.299 5.544 L 31.294 5.537 L 31.288 5.531 L 31.219 5.604 Z M 31.218 5.603 L 31.137 5.661 L 31.142 5.669 L 31.149 5.675 L 31.218 5.603 Z M 11.502 5.464 L 11.439 5.387 L 11.439 5.387 L 11.502 5.464 Z M 10.822 6.872 L 10.722 6.865 L 10.715 6.972 L 10.822 6.972 L 10.822 6.872 Z M 15.069 6.872 L 15.069 6.972 L 15.157 6.972 L 15.168 6.884 L 15.069 6.872 Z M 14.665 5.604 L 14.574 5.646 L 14.579 5.656 L 14.585 5.664 L 14.665 5.604 Z M 14.664 5.603 L 14.755 5.56 L 14.751 5.552 L 14.746 5.545 L 14.664 5.603 Z M 39.561 5.252 L 39.547 5.351 L 39.661 5.367 L 39.661 5.252 L 39.561 5.252 Z M 39.51 5.245 L 39.496 5.344 L 39.496 5.344 L 39.51 5.245 Z M 37.645 5.518 L 37.6 5.429 L 37.6 5.429 L 37.645 5.518 Z M 36.465 6.748 L 36.373 6.708 L 36.365 6.727 L 36.365 6.748 L 36.465 6.748 Z M 36.465 11.545 L 36.465 11.645 L 36.565 11.645 L 36.565 11.545 L 36.465 11.545 Z M 34.63 11.545 L 34.53 11.545 L 34.53 11.645 L 34.63 11.645 L 34.63 11.545 Z M 34.63 3.6 L 34.63 3.5 L 34.53 3.5 L 34.53 3.6 L 34.63 3.6 Z M 36.269 3.6 L 36.369 3.6 L 36.369 3.5 L 36.269 3.5 L 36.269 3.6 Z M 36.387 4.446 L 36.355 4.54 L 36.355 4.54 L 36.387 4.446 Z M 36.586 4.409 L 36.515 4.338 L 36.515 4.338 L 36.586 4.409 Z M 37.558 3.751 L 37.599 3.842 L 37.599 3.842 L 37.558 3.751 Z M 39.52 3.436 L 39.53 3.337 L 39.529 3.337 L 39.52 3.436 Z M 39.561 3.44 L 39.661 3.44 L 39.661 3.35 L 39.571 3.341 L 39.561 3.44 Z M 12.99 3.387 L 12.99 3.487 C 13.582 3.487 14.113 3.579 14.584 3.762 L 14.62 3.668 L 14.656 3.575 C 14.159 3.382 13.602 3.287 12.99 3.287 L 12.99 3.387 Z M 14.62 3.668 L 14.584 3.762 C 15.067 3.945 15.45 4.192 15.737 4.501 L 15.81 4.433 L 15.883 4.365 C 15.572 4.029 15.161 3.767 14.655 3.575 L 14.62 3.668 Z M 15.81 4.433 L 15.737 4.501 C 16.026 4.812 16.261 5.173 16.444 5.582 L 16.535 5.541 L 16.626 5.5 C 16.436 5.072 16.188 4.693 15.883 4.365 L 15.81 4.433 Z M 16.535 5.541 L 16.444 5.582 C 16.625 5.99 16.722 6.419 16.733 6.87 L 16.833 6.868 L 16.933 6.866 C 16.921 6.388 16.819 5.933 16.626 5.5 L 16.535 5.541 Z M 16.833 6.868 L 16.733 6.87 C 16.743 7.314 16.706 7.762 16.619 8.217 L 16.718 8.236 L 16.816 8.254 C 16.905 7.786 16.944 7.323 16.933 6.865 L 16.833 6.868 Z M 16.718 8.236 L 16.619 8.217 L 16.612 8.254 L 16.711 8.272 L 16.809 8.291 L 16.816 8.254 L 16.718 8.236 Z M 16.711 8.272 L 16.711 8.172 L 10.842 8.172 L 10.842 8.272 L 10.842 8.372 L 16.711 8.372 L 16.711 8.272 Z M 10.842 8.272 L 10.743 8.287 C 10.843 8.943 11.175 9.441 11.738 9.779 L 11.79 9.693 L 11.841 9.607 C 11.329 9.301 11.032 8.854 10.941 8.257 L 10.842 8.272 Z M 11.79 9.693 L 11.74 9.78 C 12.314 10.113 12.999 10.278 13.789 10.278 L 13.789 10.178 L 13.789 10.078 C 13.027 10.078 12.379 9.919 11.84 9.607 L 11.79 9.693 Z M 13.789 10.178 L 13.789 10.278 C 14.687 10.278 15.521 10.091 16.29 9.716 L 16.246 9.626 L 16.202 9.536 C 15.462 9.897 14.659 10.078 13.789 10.078 L 13.789 10.178 Z M 16.246 9.626 L 16.29 9.716 L 16.355 9.684 L 16.311 9.594 L 16.267 9.505 L 16.202 9.536 L 16.246 9.626 Z M 16.311 9.594 L 16.211 9.594 L 16.211 11.201 L 16.311 11.201 L 16.411 11.201 L 16.411 9.594 L 16.311 9.594 Z M 16.311 11.201 L 16.267 11.111 L 16.242 11.124 L 16.285 11.214 L 16.329 11.304 L 16.354 11.291 L 16.311 11.201 Z M 16.285 11.214 L 16.242 11.123 C 15.502 11.479 14.576 11.658 13.462 11.658 L 13.462 11.758 L 13.462 11.858 C 14.596 11.858 15.554 11.676 16.329 11.304 L 16.285 11.214 Z M 13.462 11.758 L 13.462 11.658 C 12.202 11.658 11.156 11.301 10.32 10.591 L 10.255 10.667 L 10.19 10.743 C 11.068 11.489 12.162 11.858 13.462 11.858 L 13.462 11.758 Z M 10.255 10.667 L 10.32 10.591 C 9.498 9.884 9.084 8.88 9.084 7.572 L 8.984 7.572 L 8.884 7.572 C 8.884 8.926 9.315 9.99 10.19 10.743 L 10.255 10.667 Z M 8.984 7.572 L 9.084 7.572 C 9.084 6.903 9.202 6.299 9.438 5.762 L 9.346 5.722 L 9.255 5.682 C 9.006 6.248 8.884 6.879 8.884 7.572 L 8.984 7.572 Z M 9.346 5.722 L 9.438 5.761 C 9.674 5.211 9.985 4.783 10.368 4.473 L 10.305 4.395 L 10.242 4.318 C 9.829 4.652 9.501 5.109 9.254 5.682 L 9.346 5.722 Z M 10.305 4.395 L 10.369 4.472 C 10.755 4.149 11.173 3.907 11.623 3.746 L 11.589 3.651 L 11.555 3.557 C 11.082 3.727 10.644 3.981 10.24 4.319 L 10.305 4.395 Z M 11.589 3.651 L 11.625 3.745 C 12.075 3.573 12.53 3.487 12.99 3.487 L 12.99 3.387 L 12.99 3.287 C 12.504 3.287 12.025 3.378 11.553 3.558 L 11.589 3.651 Z M 29.544 3.387 L 29.544 3.487 C 30.136 3.487 30.666 3.579 31.137 3.762 L 31.173 3.668 L 31.21 3.575 C 30.712 3.382 30.157 3.287 29.544 3.287 L 29.544 3.387 Z M 31.173 3.668 L 31.138 3.762 C 31.62 3.945 32.004 4.192 32.29 4.501 L 32.364 4.433 L 32.437 4.365 C 32.125 4.029 31.714 3.767 31.209 3.575 L 31.173 3.668 Z M 32.364 4.433 L 32.29 4.501 C 32.579 4.812 32.815 5.173 32.998 5.582 L 33.089 5.541 L 33.18 5.5 C 32.989 5.072 32.742 4.693 32.437 4.365 L 32.364 4.433 Z M 33.089 5.541 L 32.998 5.582 C 33.18 5.99 33.275 6.419 33.286 6.87 L 33.386 6.868 L 33.486 6.865 C 33.475 6.388 33.373 5.933 33.18 5.5 L 33.089 5.541 Z M 33.386 6.868 L 33.286 6.87 C 33.297 7.314 33.26 7.762 33.174 8.217 L 33.272 8.236 L 33.37 8.254 C 33.459 7.786 33.497 7.323 33.486 6.866 L 33.386 6.868 Z M 33.272 8.236 L 33.174 8.216 L 33.166 8.253 L 33.265 8.272 L 33.363 8.292 L 33.37 8.255 L 33.272 8.236 Z M 33.265 8.272 L 33.265 8.172 L 27.396 8.172 L 27.396 8.272 L 27.396 8.372 L 33.265 8.372 L 33.265 8.272 Z M 27.396 8.272 L 27.297 8.287 C 27.397 8.942 27.728 9.441 28.292 9.779 L 28.343 9.693 L 28.395 9.607 C 27.883 9.301 27.586 8.854 27.495 8.257 L 27.396 8.272 Z M 28.343 9.693 L 28.293 9.78 C 28.868 10.113 29.552 10.278 30.342 10.278 L 30.342 10.178 L 30.342 10.078 C 29.58 10.078 28.932 9.919 28.393 9.607 L 28.343 9.693 Z M 30.342 10.178 L 30.342 10.278 C 31.241 10.278 32.075 10.091 32.844 9.716 L 32.8 9.626 L 32.756 9.536 C 32.016 9.897 31.212 10.078 30.342 10.078 L 30.342 10.178 Z M 32.8 9.626 L 32.844 9.716 L 32.909 9.684 L 32.865 9.594 L 32.821 9.505 L 32.756 9.537 L 32.8 9.626 Z M 32.865 9.594 L 32.765 9.594 L 32.765 11.201 L 32.865 11.201 L 32.965 11.201 L 32.965 9.594 L 32.865 9.594 Z M 32.865 11.201 L 32.821 11.111 L 32.795 11.124 L 32.839 11.214 L 32.883 11.303 L 32.909 11.291 L 32.865 11.201 Z M 32.839 11.214 L 32.796 11.123 C 32.056 11.479 31.13 11.658 30.016 11.658 L 30.016 11.758 L 30.016 11.858 C 31.15 11.858 32.108 11.676 32.883 11.304 L 32.839 11.214 Z M 30.016 11.758 L 30.016 11.658 C 28.835 11.658 27.841 11.344 27.033 10.72 L 26.972 10.799 L 26.911 10.879 C 27.759 11.534 28.797 11.858 30.016 11.858 L 30.016 11.758 Z M 26.972 10.799 L 27.035 10.722 L 26.871 10.589 L 26.809 10.667 L 26.746 10.745 L 26.909 10.877 L 26.972 10.799 Z M 26.809 10.667 L 26.874 10.591 C 26.052 9.884 25.638 8.88 25.638 7.572 L 25.538 7.572 L 25.438 7.572 C 25.438 8.926 25.868 9.99 26.743 10.743 L 26.809 10.667 Z M 25.538 7.572 L 25.638 7.572 C 25.638 6.903 25.756 6.299 25.992 5.762 L 25.9 5.721 L 25.809 5.681 C 25.56 6.247 25.438 6.879 25.438 7.572 L 25.538 7.572 Z M 25.9 5.721 L 25.992 5.761 C 26.228 5.212 26.538 4.783 26.921 4.474 L 26.858 4.396 L 26.795 4.318 C 26.383 4.652 26.054 5.109 25.808 5.682 L 25.9 5.721 Z M 26.858 4.396 L 26.921 4.474 L 27.07 4.354 L 27.008 4.276 L 26.945 4.198 L 26.795 4.318 L 26.858 4.396 Z M 27.008 4.276 L 27.069 4.355 C 27.364 4.128 27.678 3.946 28.01 3.81 L 27.972 3.718 L 27.934 3.625 C 27.585 3.768 27.256 3.959 26.947 4.196 L 27.008 4.276 Z M 27.972 3.718 L 28.008 3.811 L 28.179 3.745 L 28.143 3.651 L 28.107 3.558 L 27.936 3.624 L 27.972 3.718 Z M 28.143 3.651 L 28.179 3.745 C 28.629 3.573 29.084 3.487 29.544 3.487 L 29.544 3.387 L 29.544 3.287 C 29.058 3.287 28.579 3.378 28.108 3.558 L 28.143 3.651 Z M 2.714 0 L 2.614 0 L 2.614 9.72 L 2.714 9.72 L 2.814 9.72 L 2.814 0 L 2.714 0 Z M 2.714 9.72 L 2.714 9.82 L 8.712 9.82 L 8.712 9.72 L 8.712 9.62 L 2.714 9.62 L 2.714 9.72 Z M 8.712 9.72 L 8.612 9.72 L 8.612 11.545 L 8.712 11.545 L 8.812 11.545 L 8.812 9.72 L 8.712 9.72 Z M 8.712 11.545 L 8.712 11.445 L 0.765 11.445 L 0.765 11.545 L 0.765 11.645 L 8.712 11.645 L 8.712 11.545 Z M 0.765 11.545 L 0.865 11.545 L 0.865 1.727 L 0.765 1.727 L 0.665 1.727 L 0.665 11.545 L 0.765 11.545 Z M 0.765 1.727 L 0.865 1.727 C 0.865 1.572 0.74 1.445 0.584 1.445 L 0.584 1.545 L 0.584 1.645 C 0.628 1.645 0.665 1.682 0.665 1.727 L 0.765 1.727 Z M 0.584 1.545 L 0.584 1.445 L 0 1.445 L 0 1.545 L 0 1.645 L 0.584 1.645 L 0.584 1.545 Z M 0 1.545 L 0.073 1.613 L 0.144 1.537 L 0.071 1.469 L -0.002 1.401 L -0.073 1.477 L 0 1.545 Z M 0.071 1.469 L 0.144 1.537 L 1.503 0.082 L 1.429 0.014 L 1.356 -0.054 L -0.002 1.401 L 0.071 1.469 Z M 1.429 0.014 L 1.501 0.084 L 1.515 0.069 L 1.443 0 L 1.371 -0.069 L 1.357 -0.055 L 1.429 0.014 Z M 1.443 0 L 1.443 0.1 L 2.714 0.1 L 2.714 0 L 2.714 -0.1 L 1.443 -0.1 L 1.443 0 Z M 18.828 3.6 L 18.735 3.638 L 18.747 3.667 L 18.839 3.628 L 18.932 3.59 L 18.92 3.562 L 18.828 3.6 Z M 18.839 3.628 L 18.747 3.665 L 21.084 9.516 L 21.177 9.479 L 21.269 9.442 L 18.932 3.591 L 18.839 3.628 Z M 21.177 9.479 L 21.269 9.516 L 23.591 3.665 L 23.498 3.628 L 23.405 3.591 L 21.084 9.442 L 21.177 9.479 Z M 23.498 3.628 L 23.591 3.665 L 23.602 3.637 L 23.509 3.6 L 23.417 3.563 L 23.405 3.591 L 23.498 3.628 Z M 23.509 3.6 L 23.509 3.7 L 25.516 3.7 L 25.516 3.6 L 25.516 3.5 L 23.509 3.5 L 23.509 3.6 Z M 25.516 3.6 L 25.424 3.56 L 25.397 3.623 L 25.488 3.663 L 25.58 3.703 L 25.607 3.64 L 25.516 3.6 Z M 25.488 3.663 L 25.396 3.624 L 22.039 11.478 L 22.131 11.518 L 22.223 11.557 L 25.58 3.702 L 25.488 3.663 Z M 22.131 11.518 L 22.038 11.48 L 22.027 11.507 L 22.12 11.545 L 22.212 11.583 L 22.223 11.556 L 22.131 11.518 Z M 22.12 11.545 L 22.12 11.445 L 20.218 11.445 L 20.218 11.545 L 20.218 11.645 L 22.12 11.645 L 22.12 11.545 Z M 20.218 11.545 L 20.309 11.505 L 20.297 11.477 L 20.206 11.518 L 20.114 11.558 L 20.127 11.586 L 20.218 11.545 Z M 20.206 11.518 L 20.298 11.479 L 16.957 3.624 L 16.865 3.663 L 16.773 3.702 L 20.114 11.557 L 20.206 11.518 Z M 16.865 3.663 L 16.957 3.624 L 16.93 3.561 L 16.838 3.6 L 16.746 3.639 L 16.773 3.702 L 16.865 3.663 Z M 16.838 3.6 L 16.838 3.7 L 18.828 3.7 L 18.828 3.6 L 18.828 3.5 L 16.838 3.5 L 16.838 3.6 Z M 29.625 4.934 L 29.625 4.834 C 28.994 4.834 28.45 5.018 27.993 5.387 L 28.056 5.464 L 28.119 5.542 C 28.537 5.205 29.036 5.034 29.625 5.034 L 29.625 4.934 Z M 28.056 5.464 L 28.127 5.394 L 28.127 5.393 L 28.056 5.464 L 27.985 5.534 L 27.985 5.535 L 28.056 5.464 Z M 28.056 5.464 L 27.992 5.387 C 27.556 5.748 27.318 6.243 27.276 6.865 L 27.375 6.872 L 27.475 6.879 C 27.515 6.305 27.731 5.863 28.12 5.541 L 28.056 5.464 Z M 27.375 6.872 L 27.375 6.972 L 31.622 6.972 L 31.622 6.872 L 31.622 6.772 L 27.375 6.772 L 27.375 6.872 Z M 31.622 6.872 L 31.721 6.884 C 31.775 6.433 31.632 5.986 31.299 5.544 L 31.219 5.604 L 31.139 5.664 C 31.449 6.075 31.569 6.472 31.523 6.861 L 31.622 6.872 Z M 31.219 5.604 L 31.288 5.531 L 31.287 5.53 L 31.218 5.603 L 31.149 5.675 L 31.15 5.676 L 31.219 5.604 Z M 31.218 5.603 L 31.3 5.545 C 30.96 5.068 30.397 4.834 29.625 4.834 L 29.625 4.934 L 29.625 5.034 C 30.357 5.034 30.847 5.254 31.137 5.661 L 31.218 5.603 Z M 13.071 4.934 L 13.071 4.834 C 12.441 4.834 11.896 5.018 11.439 5.387 L 11.502 5.464 L 11.565 5.542 C 11.983 5.205 12.482 5.034 13.071 5.034 L 13.071 4.934 Z M 11.502 5.464 L 11.439 5.387 C 11.003 5.749 10.765 6.243 10.722 6.865 L 10.822 6.872 L 10.922 6.879 C 10.961 6.305 11.177 5.863 11.566 5.541 L 11.502 5.464 Z M 10.822 6.872 L 10.822 6.972 L 15.069 6.972 L 15.069 6.872 L 15.069 6.772 L 10.822 6.772 L 10.822 6.872 Z M 15.069 6.872 L 15.168 6.884 C 15.221 6.433 15.078 5.986 14.745 5.544 L 14.665 5.604 L 14.585 5.664 C 14.895 6.075 15.015 6.472 14.969 6.861 L 15.069 6.872 Z M 14.665 5.604 L 14.755 5.561 L 14.755 5.56 L 14.664 5.603 L 14.574 5.646 L 14.574 5.646 L 14.665 5.604 Z M 14.664 5.603 L 14.746 5.545 C 14.406 5.068 13.843 4.834 13.071 4.834 L 13.071 4.934 L 13.071 5.034 C 13.803 5.034 14.293 5.254 14.583 5.661 L 14.664 5.603 Z M 39.561 5.252 L 39.575 5.153 L 39.523 5.146 L 39.51 5.245 L 39.496 5.344 L 39.547 5.351 L 39.561 5.252 Z M 39.51 5.245 L 39.524 5.146 C 38.819 5.046 38.177 5.14 37.6 5.429 L 37.645 5.518 L 37.69 5.608 C 38.226 5.339 38.826 5.249 39.496 5.344 L 39.51 5.245 Z M 37.645 5.518 L 37.6 5.429 C 37.027 5.717 36.617 6.144 36.373 6.708 L 36.465 6.748 L 36.556 6.788 C 36.781 6.268 37.157 5.876 37.69 5.608 L 37.645 5.518 Z M 36.465 6.748 L 36.365 6.748 L 36.365 11.545 L 36.465 11.545 L 36.565 11.545 L 36.565 6.748 L 36.465 6.748 Z M 36.465 11.545 L 36.465 11.445 L 34.63 11.445 L 34.63 11.545 L 34.63 11.645 L 36.465 11.645 L 36.465 11.545 Z M 34.63 11.545 L 34.73 11.545 L 34.73 3.6 L 34.63 3.6 L 34.53 3.6 L 34.53 11.545 L 34.63 11.545 Z M 34.63 3.6 L 34.63 3.7 L 36.269 3.7 L 36.269 3.6 L 36.269 3.5 L 34.63 3.5 L 34.63 3.6 Z M 36.269 3.6 L 36.169 3.6 L 36.169 4.302 L 36.269 4.302 L 36.369 4.302 L 36.369 3.6 L 36.269 3.6 Z M 36.269 4.302 L 36.169 4.302 C 36.169 4.423 36.257 4.507 36.355 4.54 L 36.387 4.446 L 36.42 4.351 C 36.399 4.344 36.386 4.334 36.378 4.325 C 36.371 4.317 36.369 4.309 36.369 4.302 L 36.269 4.302 Z M 36.387 4.446 L 36.355 4.54 C 36.452 4.574 36.574 4.562 36.657 4.48 L 36.586 4.409 L 36.515 4.338 C 36.499 4.355 36.463 4.366 36.42 4.351 L 36.387 4.446 Z M 36.586 4.409 L 36.656 4.48 C 36.912 4.225 37.226 4.013 37.599 3.842 L 37.558 3.751 L 37.516 3.66 C 37.124 3.839 36.79 4.065 36.515 4.338 L 36.586 4.409 Z M 37.558 3.751 L 37.599 3.842 C 38.187 3.574 38.824 3.471 39.511 3.536 L 39.52 3.436 L 39.529 3.337 C 38.81 3.269 38.138 3.376 37.516 3.66 L 37.558 3.751 Z M 39.52 3.436 L 39.51 3.536 L 39.551 3.54 L 39.561 3.44 L 39.571 3.341 L 39.53 3.337 L 39.52 3.436 Z M 39.561 3.44 L 39.461 3.44 L 39.461 5.252 L 39.561 5.252 L 39.661 5.252 L 39.661 3.44 L 39.561 3.44 Z" fill="currentColor" fill-rule="nonzero"/>
</svg>
