<svg width="128" height="128" viewBox="0 0 128 128" fill="none" xmlns="http://www.w3.org/2000/svg">
  <rect width="128" height="128" rx="64" fill="#12160F"/>
  <path d="M20 72C21.9 43.8 39.1 24 64 24C88.9 24 106.1 43.8 108 72C95.6 78.9 81.1 82.5 64 82.5C46.9 82.5 32.4 78.9 20 72Z" fill="#B8FF05"/>
  <path d="M40 71.5C42.7 55.3 51.1 45.5 64 45.5C76.9 45.5 85.3 55.3 88 71.5C80.9 75.7 72.9 77.8 64 77.8C55.1 77.8 47.1 75.7 40 71.5Z" fill="#2B3216"/>
  <path d="M51 74H77L82 105C75.9 108.7 69.9 110.5 64 110.5C58.1 110.5 52.1 108.7 46 105L51 74Z" fill="#F6F8E8"/>
  <path d="M56 82H72L74.5 101C71.1 102.9 67.6 103.9 64 103.9C60.4 103.9 56.9 102.9 53.5 101L56 82Z" fill="#CAD2B9"/>
  <circle cx="44" cy="48" r="8" fill="#F6F8E8"/>
  <circle cx="76" cy="39" r="6.5" fill="#F6F8E8"/>
  <circle cx="92" cy="61" r="5.5" fill="#F6F8E8"/>
  <circle cx="62" cy="60" r="4.5" fill="#F6F8E8"/>
  <path d="M20 72C34.8 62.7 50.9 58.1 68.4 58.1C83.5 58.1 96.7 61.6 108 68.7V72C95.6 78.9 81.1 82.5 64 82.5C46.9 82.5 32.4 78.9 20 72Z" fill="#9BE000" fill-opacity=".45"/>
  <rect x="6" y="6" width="116" height="116" rx="58" stroke="#E6FF75" stroke-opacity=".28" stroke-width="2"/>
</svg>
