<svg width="128" height="128" viewBox="0 0 128 128" fill="none" xmlns="http://www.w3.org/2000/svg">
  <rect width="128" height="128" rx="64" fill="#0C1018"/>
  <circle cx="64" cy="64" r="20" fill="#B8FF05"/>
  <circle cx="64" cy="64" r="9" fill="#15200C"/>
  <path d="M26.4 72.7C23 62.6 37.7 47.3 59.1 38.5C80.6 29.7 100.6 30.7 104 40.8C107.4 50.9 92.7 66.2 71.3 75C49.8 83.8 29.8 82.8 26.4 72.7Z" stroke="#7FFFE3" stroke-width="4"/>
  <path d="M101.6 55.3C105 65.4 90.3 80.7 68.9 89.5C47.4 98.3 27.4 97.3 24 87.2C20.6 77.1 35.3 61.8 56.7 53" stroke="#B8FF05" stroke-width="4" stroke-linecap="round"/>
  <circle cx="96" cy="42" r="6" fill="#F6F8E8"/>
  <circle cx="31" cy="86" r="4.5" fill="#7FFFE3"/>
  <path d="M64 18V29M64 99V110M18 64H29M99 64H110" stroke="#B8FF05" stroke-opacity=".35" stroke-width="3" stroke-linecap="round"/>
  <rect x="6" y="6" width="116" height="116" rx="58" stroke="#E6FF75" stroke-opacity=".24" stroke-width="2"/>
</svg>
