<svg width="128" height="128" viewBox="0 0 128 128" fill="none" xmlns="http://www.w3.org/2000/svg">
  <rect width="128" height="128" rx="64" fill="#081616"/>
  <circle cx="64" cy="64" r="45" fill="#102322" stroke="#7FFFE3" stroke-opacity=".35" stroke-width="2"/>
  <path d="M28 75C39.7 58.3 51.7 49.9 64 49.9C76.3 49.9 88.3 58.3 100 75" stroke="#B8FF05" stroke-width="8" stroke-linecap="round"/>
  <path d="M38 86C46.6 73.8 55.3 67.7 64 67.7C72.7 67.7 81.4 73.8 90 86" stroke="#7FFFE3" stroke-width="7" stroke-linecap="round"/>
  <path d="M48 42C53.4 36.8 58.7 34.2 64 34.2C69.3 34.2 74.6 36.8 80 42" stroke="#F6F8E8" stroke-width="6" stroke-linecap="round"/>
  <circle cx="64" cy="88" r="8.5" fill="#B8FF05"/>
  <circle cx="64" cy="88" r="3.5" fill="#102322"/>
  <path d="M23 52H36M92 52H105M64 17V30M64 98V111" stroke="#B8FF05" stroke-opacity=".45" stroke-width="3" stroke-linecap="round"/>
  <rect x="6" y="6" width="116" height="116" rx="58" stroke="#E6FF75" stroke-opacity=".24" stroke-width="2"/>
</svg>
