<svg width="128" height="128" viewBox="0 0 128 128" fill="none" xmlns="http://www.w3.org/2000/svg">
  <rect width="128" height="128" rx="64" fill="#11130F"/>
  <path d="M64 18L99 32V58.2C99 81.8 85 100.7 64 110C43 100.7 29 81.8 29 58.2V32L64 18Z" fill="#19210F" stroke="#B8FF05" stroke-width="3"/>
  <path d="M45 51L64 37L83 51L76 83H52L45 51Z" fill="#B8FF05"/>
  <path d="M45 51H83M52 83L64 37L76 83M52 83L45 51M76 83L83 51" stroke="#26320D" stroke-width="3" stroke-linejoin="round"/>
  <path d="M38 31L64 21.5L90 31" stroke="#F6F8E8" stroke-opacity=".28" stroke-width="2" stroke-linecap="round"/>
  <path d="M39 64C41.5 81.4 49.8 94.1 64 102C78.2 94.1 86.5 81.4 89 64" stroke="#F6F8E8" stroke-opacity=".38" stroke-width="3" stroke-linecap="round"/>
  <circle cx="64" cy="60" r="6" fill="#F6F8E8"/>
  <rect x="6" y="6" width="116" height="116" rx="58" stroke="#E6FF75" stroke-opacity=".24" stroke-width="2"/>
</svg>
